<svg fill="#FFFFFF" xmlns="http://www.w3.org/2000/svg" xmlns:xlink="http://www.w3.org/1999/xlink" version="1.1" x="0px" y="0px" viewBox="0 0 100 100" enable-background="new 0 0 100 100" xml:space="preserve"><g><path d="M89.443,47.191c4.408-4.41,6.256-10.356,5.402-16.084l-0.105-0.801c-0.123-0.686-0.807-1.179-1.492-1.077   c-0.172,0.061-0.373,0.112-0.512,0.25l-2.957,2.957l-5.176,5.178c-3.377,3.375-8.812,3.409-12.188,0.034   c-3.375-3.374-3.34-8.812,0.035-12.188l5.176-5.176l2.955-2.957c0.141-0.139,0.258-0.275,0.318-0.448   c0.102-0.685-0.34-1.317-1.025-1.439l-0.84-0.143c-5.729-0.855-11.814,0.851-16.225,5.26c-5.668,5.669-6.787,14.217-3.994,20.91   l-8.6,8.6l-14.936-14.94l1.605-1.604c0.375-0.373,12.682-21.666,12.682-21.666s0.252-0.477-0.191-0.895   c-0.461-0.438-0.982-0.15-0.982-0.15S27.459,23.507,27.084,23.882l-1.521,1.524L24.5,24.342c-0.369-0.369-0.965-0.373-1.334-0.006   l-8.193,8.194c-0.367,0.366-0.371,0.963-0.006,1.331l1.082,1.081L5.793,45.218c-1.002,0.958-0.98,1.95-0.002,2.918l6.764,6.773   c0.963,0.963,2.006,0.941,2.916,0.001l10.281-10.266l14.943,14.944L21.127,79.156c-0.377,0.376-0.406,1.226-0.031,1.603   l8.389,8.387c0.377,0.378,0.75-0.128,1.127-0.504L50.18,69.073l19.781,19.782c0.365,0.369,0.961,0.372,1.332,0.006l8.219-8.149   c0.371-0.367,0.373-0.962,0.008-1.333l-19.82-19.825l8.602-8.601C75.883,54.633,83.775,52.859,89.443,47.191z"></path></g></svg>