<svg fill="#FFFFFF" xmlns="http://www.w3.org/2000/svg" xmlns:xlink="http://www.w3.org/1999/xlink" version="1.1" x="0px" y="0px" viewBox="0 0 164 164" enable-background="new 0 0 164 164" xml:space="preserve"><path fill-rule="evenodd" clip-rule="evenodd" d="M132.093,152.949c-8.565-25.992-24.885-72.475-33.45-98.467  C98.495,46.655,98.348,38.828,98.199,31c-14.325,0-28.65,0-42.975,0c0-10.19,0-20.38,0-30.57  c-28.497,1.178-41.16,65.643,20.38,59.368c7.088,27.321,21.931,75.133,29.02,102.454  C115.534,166.359,126.451,163.211,132.093,152.949L132.093,152.949z M65.525,26.459c-0.148-8.64-0.296-17.5-0.443-26.14  c10.396,0.506,19.512,9.481,20.602,26.14C78.964,26.459,72.245,26.459,65.525,26.459L65.525,26.459z M91.443,37.314v15.285H78.152  V37.314H91.443L91.443,37.314z M115.7,140.474c4.221,0,7.643,3.264,7.643,7.289c0,4.026-3.422,7.291-7.643,7.291  s-7.643-3.265-7.643-7.291C108.058,143.737,111.479,140.474,115.7,140.474z"></path></svg>