<svg fill="#FFFFFF" xmlns="http://www.w3.org/2000/svg" xmlns:xlink="http://www.w3.org/1999/xlink" version="1.1" x="0px" y="0px" viewBox="0 0 100 100" enable-background="new 0 0 100 100" xml:space="preserve"><path d="M92.651,58.635c-3.715-1.251-6.206-4.726-6.206-8.636s2.496-7.385,6.206-8.635c1.13-0.374,1.774-1.566,1.478-2.724  c-1.051-4.093-2.67-8.017-4.823-11.683c-0.623-1.059-1.976-1.433-3.056-0.845c-1.331,0.725-2.839,1.107-4.361,1.107  c-5.021,0-9.111-4.089-9.111-9.111c0-1.526,0.383-3.029,1.108-4.36c0.587-1.08,0.214-2.433-0.845-3.056  c-3.662-2.153-7.59-3.772-11.684-4.823c-1.156-0.298-2.34,0.348-2.723,1.478c-1.25,3.715-4.725,6.206-8.635,6.206  s-7.385-2.496-8.635-6.206c-0.375-1.13-1.566-1.775-2.724-1.478c-4.093,1.051-8.017,2.67-11.683,4.823  c-1.059,0.623-1.433,1.976-0.846,3.056c0.726,1.331,1.108,2.839,1.108,4.36c0,5.022-4.089,9.111-9.111,9.111  c-1.526,0-3.034-0.383-4.36-1.107c-1.08-0.588-2.434-0.214-3.057,0.845c-2.152,3.662-3.771,7.59-4.822,11.683  c-0.298,1.157,0.348,2.341,1.477,2.724c3.715,1.25,6.207,4.725,6.207,8.635s-2.496,7.385-6.207,8.636  c-1.129,0.373-1.774,1.565-1.477,2.723c1.051,4.093,2.67,8.017,4.822,11.683c0.623,1.059,1.977,1.433,3.057,0.845  c1.33-0.725,2.839-1.107,4.36-1.107c5.022,0,9.111,4.089,9.111,9.111c0,1.526-0.383,3.029-1.108,4.36  c-0.587,1.08-0.213,2.433,0.846,3.056c3.662,2.153,7.59,3.772,11.683,4.823c0.19,0.053,0.382,0.075,0.567,0.075  c0.955-0.001,1.84-0.61,2.156-1.553c1.25-3.715,4.725-6.206,8.635-6.206s7.385,2.496,8.635,6.206  c0.374,1.13,1.566,1.775,2.723,1.478c4.094-1.051,8.018-2.67,11.684-4.823c1.059-0.623,1.432-1.976,0.845-3.056  c-0.726-1.331-1.108-2.839-1.108-4.36c0-5.022,4.09-9.111,9.111-9.111c1.527,0,3.03,0.383,4.361,1.107  c1.08,0.588,2.433,0.214,3.056-0.845c2.153-3.662,3.772-7.59,4.823-11.683C94.426,60.2,93.781,59.017,92.651,58.635z M50.004,63.671  c-7.536,0-13.666-6.131-13.666-13.667c0-7.537,6.13-13.667,13.666-13.667c7.537,0,13.668,6.13,13.668,13.667  C63.672,57.54,57.541,63.671,50.004,63.671z"></path></svg>