<svg fill="#FFFFFF" xmlns="http://www.w3.org/2000/svg" xmlns:xlink="http://www.w3.org/1999/xlink" version="1.1" x="0px" y="0px" viewBox="0 0 20 20" style="enable-background:new 0 0 20 20;" xml:space="preserve"><g><path d="M12.5,0C8.4,0,5,3.4,5,7.5c0,0.9,0.2,1.9,0.5,2.7l-4.6,4.6c-1.2,1.2-1.2,3.1,0,4.2c1.2,1.2,3.1,1.2,4.2,0l4.6-4.6   c0.9,0.3,1.8,0.5,2.7,0.5c4.1,0,7.5-3.4,7.5-7.5S16.6,0,12.5,0z M3.7,17.7c-0.4,0.4-1,0.4-1.4,0c-0.4-0.4-0.4-1,0-1.4L6.5,12   c0.4,0.5,0.9,1,1.4,1.4L3.7,17.7z M12.5,13C9.4,13,7,10.5,7,7.5C7,4.5,9.5,2,12.5,2S18,4.5,18,7.5S15.5,13,12.5,13z"></path><path d="M12.5,4C10.6,4,9,5.6,9,7.5c0,0.6,0.4,1,1,1s1-0.4,1-1C11,6.7,11.7,6,12.5,6c0.6,0,1-0.4,1-1S13,4,12.5,4z"></path></g></svg>