<svg fill="#FFFFFF" xmlns="http://www.w3.org/2000/svg" xmlns:xlink="http://www.w3.org/1999/xlink" version="1.1" x="0px" y="0px" viewBox="0 0 100 100" enable-background="new 0 0 100 100" xml:space="preserve"><path d="M65,26.5h11l-16-16v11C60,24.257,62.243,26.5,65,26.5z"></path><path d="M39,69.5c0-14.36,11.645-26,26.008-26c3.93,0,7.652,0.877,10.992,2.439V31.5H65c-5.5,0-10-4.5-10-10v-11H15v64  c0,5.5,4.5,10,10,10h18.771C40.77,80.262,39,75.089,39,69.5z M27,21.5h19v5H27V21.5z M27,33.5h25v5H27V33.5z"></path><path fill-rule="evenodd" clip-rule="evenodd" d="M80.18,69.5c0-0.936-0.098-1.848-0.262-2.736L85,63.83l-5-8.66l-5.082,2.934  c-1.384-1.184-2.986-2.111-4.738-2.732V49.5h-10v5.871c-1.752,0.621-3.355,1.549-4.738,2.732l-5.082-2.934l-5,8.66l5.081,2.934  c-0.163,0.889-0.261,1.801-0.261,2.736s0.098,1.848,0.261,2.736l-5.081,2.934l5,8.66l5.082-2.934  c1.383,1.184,2.986,2.111,4.738,2.732V89.5h10v-5.871c1.752-0.621,3.354-1.549,4.738-2.732L80,83.83l5-8.66l-5.082-2.934  C80.082,71.348,80.18,70.436,80.18,69.5z M65.002,76.5c-3.867,0-7.002-3.134-7.002-7s3.135-7,7.002-7c3.863,0,6.998,3.134,6.998,7  S68.865,76.5,65.002,76.5z"></path></svg>